<?xml version="1.0" standalone="no"?>
<!DOCTYPE svg PUBLIC "-//W3C//DTD SVG 20010904//EN"
 "http://www.w3.org/TR/2001/REC-SVG-20010904/DTD/svg10.dtd">
<svg version="1.0" xmlns="http://www.w3.org/2000/svg"
 width="800.000000pt" height="800.000000pt" viewBox="0 0 800.000000 800.000000"
 preserveAspectRatio="xMidYMid meet">
<metadata>
Created by potrace 1.14, written by Peter Selinger 2001-2017
</metadata>
<g transform="translate(0.000000,800.000000) scale(0.100000,-0.100000)"
fill="#000000" stroke="none">
<path d="M3870 7204 c-318 -231 -585 -498 -846 -849 -99 -133 -204 -289 -204
-305 0 -5 -4 -10 -10 -10 -5 0 -10 -4 -10 -10 0 -5 -15 -33 -34 -62 -18 -29
-75 -137 -125 -240 l-91 -187 -103 48 c-120 56 -153 71 -227 101 -71 29 -323
118 -353 124 -12 3 -47 12 -77 21 -30 9 -62 18 -70 20 -8 2 -35 9 -60 15 -46
12 -128 29 -167 35 -12 2 -34 6 -50 9 -44 10 -64 13 -128 21 -32 4 -68 9 -80
11 -11 3 -100 7 -197 10 l-176 6 -31 -67 c-17 -36 -31 -69 -31 -72 0 -3 -6
-19 -14 -36 -33 -74 -100 -302 -120 -407 -2 -14 -9 -45 -15 -70 -5 -25 -13
-67 -17 -95 -3 -27 -8 -52 -9 -55 -2 -3 -7 -32 -10 -65 -7 -57 -12 -90 -15
-90 0 0 -3 -25 -6 -55 -2 -30 -7 -75 -10 -100 -8 -62 -12 -570 -5 -570 3 0 6
-19 7 -43 1 -48 13 -165 19 -187 2 -8 6 -33 9 -55 8 -66 23 -144 46 -245 12
-52 23 -102 25 -110 2 -8 24 -81 49 -162 25 -80 46 -150 46 -155 0 -9 -73 -43
-93 -43 -8 0 -17 -3 -21 -7 -4 -5 -11 -8 -14 -8 -7 0 -42 -13 -127 -47 -62
-25 -258 -123 -345 -173 -36 -21 -77 -44 -93 -52 -15 -8 -27 -19 -27 -24 0 -5
-5 -9 -10 -9 -6 0 -20 -9 -31 -19 l-21 -19 26 -106 c63 -260 174 -530 307
-747 27 -44 49 -84 49 -89 0 -5 3 -10 8 -12 11 -5 62 -75 62 -86 0 -6 3 -12 8
-14 4 -1 29 -32 57 -68 27 -36 52 -67 55 -70 3 -3 18 -21 34 -40 45 -56 194
-206 265 -268 36 -31 68 -60 71 -63 3 -3 41 -32 85 -65 44 -32 82 -61 85 -64
11 -12 116 -77 124 -78 5 0 12 -4 15 -10 25 -38 466 -246 566 -266 6 -2 42
-12 80 -24 39 -11 81 -23 95 -26 14 -2 32 -7 40 -10 114 -41 656 -48 848 -11
11 2 35 6 53 9 19 3 64 12 99 21 36 9 76 18 89 21 71 15 378 120 395 136 6 4
16 8 24 8 7 0 32 9 55 19 368 167 416 171 667 53 274 -129 694 -257 909 -278
141 -14 448 -19 546 -9 165 16 177 18 273 41 35 9 68 17 75 18 7 2 19 5 27 8
8 3 57 20 109 38 129 43 155 55 316 136 120 60 299 165 315 184 3 3 21 17 40
30 84 57 226 178 322 273 164 162 253 269 372 447 31 47 61 92 66 100 81 120
255 518 285 650 0 3 7 22 14 43 7 21 14 48 16 60 8 51 16 93 20 103 2 6 0 15
-3 21 -7 11 -179 118 -217 134 -11 5 -40 21 -65 35 -89 50 -362 166 -422 179
-56 12 -72 48 -48 110 5 14 12 36 14 50 3 13 16 61 30 107 15 46 28 92 30 103
2 11 9 40 16 64 6 24 18 74 25 110 7 36 16 75 18 87 3 11 8 45 11 75 3 30 8
65 11 78 31 157 25 844 -9 1007 -2 12 -7 45 -11 75 -4 30 -15 99 -26 154 -25
126 -27 133 -33 143 -3 5 -8 24 -11 43 -7 36 -69 234 -90 284 -7 17 -23 57
-37 90 -16 41 -34 67 -57 82 -39 27 -94 26 -386 -1 -68 -6 -136 -17 -265 -42
-14 -3 -95 -22 -180 -44 -275 -68 -474 -140 -720 -258 -69 -33 -129 -58 -133
-55 -5 3 -33 55 -63 116 -132 273 -246 466 -403 687 -41 58 -77 107 -80 110
-4 3 -31 37 -62 75 -156 195 -372 405 -646 628 -45 37 -87 67 -93 67 -5 0 -10
4 -10 8 0 9 -53 42 -67 42 -4 0 -55 -35 -113 -76z m184 -231 c117 -89 161
-128 322 -288 148 -148 268 -277 287 -311 4 -8 18 -25 31 -39 13 -14 36 -44
52 -67 16 -24 31 -45 34 -48 10 -9 115 -164 158 -233 128 -204 238 -426 312
-627 43 -118 51 -141 52 -150 0 -3 6 -21 14 -40 7 -19 18 -55 25 -80 7 -25 14
-49 15 -55 15 -54 73 -312 79 -355 5 -29 15 -105 20 -145 23 -182 24 -731 1
-850 -2 -11 -7 -42 -10 -70 -18 -122 -110 -427 -174 -575 -79 -182 -242 -490
-264 -498 -4 -2 -8 -8 -8 -14 0 -8 -102 -163 -137 -208 -117 -151 -179 -228
-192 -241 -9 -9 -38 -43 -66 -75 -96 -114 -444 -451 -519 -504 -12 -8 -29 -22
-40 -31 -10 -10 -31 -23 -46 -29 -26 -11 -33 -9 -75 23 -186 142 -499 451
-655 647 -19 24 -39 48 -45 54 -28 30 -135 177 -135 185 0 5 -4 11 -8 13 -11
4 -75 100 -151 225 -51 86 -194 356 -196 373 -1 3 -11 27 -23 54 -12 27 -22
54 -22 60 0 7 -4 16 -9 21 -21 22 -128 369 -145 470 -3 17 -7 40 -10 51 -6 27
-12 67 -27 179 -14 101 -18 505 -5 605 4 36 9 79 11 95 16 140 49 332 76 440
12 44 23 89 26 100 5 25 8 36 15 55 3 8 23 67 43 130 76 234 186 469 346 739
50 86 256 378 289 411 3 3 30 34 60 70 92 110 241 261 374 381 27 24 57 52 67
61 41 38 171 138 180 138 6 0 39 -21 73 -47z m-2882 -1228 c29 -3 94 -13 143
-22 50 -8 99 -17 110 -18 11 -2 40 -8 65 -15 25 -7 56 -14 70 -16 93 -15 438
-126 615 -199 11 -5 22 -9 25 -9 5 -2 66 -30 202 -93 64 -30 76 -39 68 -53 -9
-16 -45 -139 -56 -189 -3 -14 -7 -28 -9 -31 -2 -4 -7 -22 -10 -41 -3 -19 -11
-52 -17 -74 -5 -22 -12 -47 -13 -55 -2 -8 -4 -15 -5 -15 -1 0 -3 -14 -5 -31
-3 -17 -11 -58 -19 -92 -8 -33 -11 -63 -8 -66 3 -3 1 -6 -4 -6 -5 0 -9 -12
-10 -27 0 -16 -6 -64 -12 -107 -45 -293 -28 -823 33 -1101 3 -11 9 -38 13 -61
5 -22 11 -45 15 -51 3 -5 9 -25 12 -43 10 -56 90 -288 140 -404 139 -325 321
-622 567 -925 93 -114 148 -174 354 -383 96 -98 174 -184 174 -193 0 -20 -31
-16 -242 30 -22 5 -62 14 -145 34 -21 5 -72 19 -113 30 -41 12 -84 24 -94 26
-23 5 -85 24 -106 32 -8 3 -20 7 -26 8 -56 12 -322 120 -460 186 -162 77 -416
236 -521 326 -11 10 -41 34 -64 53 -92 74 -318 308 -394 408 -5 7 -16 19 -23
27 -30 34 -202 298 -202 311 0 8 -4 14 -8 14 -10 0 -127 233 -163 321 -55 137
-99 261 -119 334 -5 17 -15 55 -24 87 -16 58 -18 68 -36 153 -14 62 -17 80
-24 129 -4 21 -8 41 -10 45 -2 3 -7 36 -10 73 -4 37 -9 77 -11 89 -24 124 -25
729 -1 854 2 11 7 45 11 75 16 113 23 149 51 275 14 61 27 118 29 127 8 38 75
244 82 254 22 31 61 35 185 19z m5790 -12 c24 -22 119 -330 133 -432 4 -23 14
-77 30 -151 3 -14 7 -47 10 -75 3 -27 8 -57 10 -65 19 -75 32 -491 20 -665 -6
-94 -15 -188 -20 -215 -7 -38 -15 -101 -20 -145 -4 -33 -26 -134 -70 -319 -28
-118 -143 -444 -166 -472 -6 -8 -9 -14 -5 -14 9 0 -115 -245 -165 -327 -97
-159 -230 -343 -305 -423 -144 -154 -304 -301 -409 -378 -136 -98 -321 -209
-470 -282 -80 -39 -284 -127 -310 -134 -5 -2 -17 -6 -25 -9 -30 -12 -294 -98
-314 -102 -12 -2 -21 -4 -21 -5 0 -1 -7 -3 -15 -5 -8 -1 -62 -14 -120 -28
-118 -28 -191 -44 -235 -52 -71 -13 -141 -25 -147 -25 -25 0 8 41 135 166 160
160 263 268 322 338 22 27 50 60 63 75 43 48 188 245 249 336 88 133 157 249
229 385 21 40 104 221 104 226 0 3 9 24 19 48 68 149 167 497 186 656 3 25 7
56 10 70 24 115 24 582 1 760 -2 14 -6 54 -10 90 -9 83 -15 122 -42 270 -15
85 -78 336 -109 439 -16 52 -16 56 2 69 18 14 281 142 303 147 3 1 19 7 35 14
37 16 126 48 185 68 25 8 52 17 60 20 8 3 20 7 25 8 6 2 42 12 80 23 79 24
228 62 265 68 14 3 36 7 50 10 45 9 304 53 335 57 46 6 98 -3 117 -20z m-6096
-2655 c27 -30 43 -57 100 -164 26 -49 73 -131 105 -183 33 -51 59 -97 59 -101
0 -5 3 -10 8 -12 4 -1 27 -32 51 -68 103 -152 193 -262 306 -375 125 -126 225
-217 225 -206 0 3 4 1 8 -5 17 -25 279 -206 402 -278 90 -52 427 -214 510
-245 47 -18 94 -36 105 -41 19 -8 177 -61 200 -66 20 -5 51 -14 110 -30 33 -9
67 -17 75 -19 8 -2 33 -8 55 -14 22 -5 56 -13 75 -16 19 -3 42 -8 51 -11 10
-2 31 -6 48 -9 44 -5 101 -25 101 -35 0 -26 -414 -152 -593 -180 -37 -6 -102
-13 -145 -17 -112 -9 -489 -9 -542 0 -25 4 -61 10 -80 13 -19 2 -69 14 -110
25 -41 11 -82 22 -90 24 -89 23 -307 115 -424 179 -248 135 -510 347 -686 556
-30 36 -57 67 -60 70 -18 16 -108 142 -169 235 -101 155 -271 509 -271 565 0
9 -4 20 -8 25 -5 6 -17 36 -26 68 -14 44 -15 61 -6 71 27 34 369 192 540 250
58 19 53 20 76 -6z m6381 -22 c124 -42 190 -70 331 -141 126 -63 150 -87 134
-135 -6 -16 -9 -30 -7 -30 3 0 -30 -96 -52 -150 -3 -8 -7 -19 -8 -25 -12 -53
-217 -446 -236 -453 -5 -2 -9 -8 -9 -14 0 -12 -90 -141 -102 -146 -4 -2 -8 -9
-8 -15 0 -7 -16 -30 -35 -52 -19 -22 -49 -58 -67 -79 -64 -77 -245 -252 -338
-327 -146 -118 -271 -198 -430 -277 -41 -20 -78 -41 -82 -47 -4 -5 -8 -6 -8
-1 0 5 -6 4 -12 -1 -25 -19 -267 -106 -330 -118 -11 -2 -28 -7 -38 -10 -10 -3
-33 -8 -51 -10 -19 -3 -45 -7 -59 -10 -119 -24 -407 -35 -520 -20 -19 3 -60 7
-90 10 -30 2 -66 7 -80 10 -13 2 -42 7 -65 10 -43 7 -49 8 -235 57 -158 41
-333 101 -337 115 -5 15 32 26 227 68 11 2 147 35 210 50 104 26 375 121 488
171 29 13 55 24 58 24 5 0 276 135 324 162 14 7 44 26 67 41 24 15 45 27 47
27 7 0 164 108 231 159 173 131 420 374 531 521 44 59 144 208 144 216 0 3 5
10 10 17 13 14 69 109 115 192 75 138 93 172 104 208 11 33 16 37 46 37 18 0
78 -15 132 -34z"/>
</g>
</svg>
