<svg width="50" height="41" viewBox="0 0 50 41" fill="none" xmlns="http://www.w3.org/2000/svg">
<path d="M23.8461 0.722263C20.8424 2.94637 17.919 6.5806 16.3598 9.99701L15.9471 10.8798L14.8809 10.3753C12.1294 9.09132 8.70152 8.25441 6.21374 8.25441H5.37683L5.09022 8.88496C4.29917 10.6849 3.69156 13.6656 3.58838 16.2795C3.4852 18.8017 3.84059 21.45 4.58578 23.7544L4.90679 24.7747L4.60871 24.9008C4.43675 24.9581 4.02403 25.1186 3.68009 25.2333C2.47632 25.6575 0 27.0217 0 27.2625C0 27.3083 0.126109 27.8128 0.275147 28.386C1.86871 34.3131 6.87868 39.1282 12.8058 40.4237C14.1586 40.7218 17.0133 40.6988 18.5151 40.3778C20.0169 40.0568 21.5417 39.5409 23.1009 38.8416C24.7747 38.0849 25.1186 38.0849 26.6205 38.7957C27.9733 39.4492 30.0827 40.1485 31.5273 40.4237C33.0062 40.7103 35.6889 40.7103 37.0302 40.4237C41.8109 39.4033 46.2018 35.8723 48.4373 31.2292C49.0106 30.0483 49.6067 28.3401 49.7099 27.6064L49.7787 27.1134L48.8615 26.5632C47.9214 25.9899 46.282 25.2447 45.4222 24.9811C44.849 24.8206 44.8604 24.9237 45.319 23.3646C46.0298 20.98 46.2476 19.1342 46.1674 16.3483C46.0871 13.5739 45.6859 11.4071 44.8146 9.17157C44.4133 8.11684 44.4019 8.11684 42.7051 8.26588C41.1116 8.40345 40.8364 8.44931 39.2085 8.85056C37.569 9.24035 35.9984 9.80211 34.6915 10.4556C34.1985 10.7078 33.7858 10.8912 33.7743 10.8683C32.0661 7.21114 30.3923 4.79214 27.9733 2.47632C26.9186 1.46745 25.0957 0 24.9008 0C24.8549 0 24.3849 0.33247 23.8461 0.722263ZM25.8753 2.33875C27.0905 3.3247 28.6955 4.9985 29.6586 6.31692C31.9629 9.41232 33.2813 12.4389 33.9577 16.1649C34.3131 18.1253 34.3246 21.7366 33.9692 23.2958C33.1094 27.102 31.126 30.5872 27.9389 33.9004C26.6663 35.2074 25.1072 36.5716 24.8664 36.5716C24.7747 36.5716 24.1671 36.0901 23.5021 35.494C20.8309 33.1208 18.7559 30.4381 17.3687 27.5835C15.4885 23.7085 15.0643 20.0857 15.9471 15.4885C16.7381 11.3957 18.9737 7.22261 22.0691 4.06989C23.0321 3.08394 24.7288 1.60503 24.9008 1.60503C24.9352 1.60503 25.3708 1.93749 25.8753 2.33875ZM7.69265 9.64161C9.72186 9.90529 12.4045 10.7078 14.4108 11.6364L15.477 12.1294L15.2936 12.6912C14.9611 13.7803 14.5713 15.5573 14.3764 16.8528C14.1242 18.6527 14.2045 21.92 14.5599 23.5595C15.4656 27.8013 17.8158 31.8368 21.4729 35.3908C22.3786 36.2735 22.7226 36.6863 22.5735 36.6863C22.0347 36.6863 19.4093 36.0557 17.9992 35.5857C14.8121 34.531 12.4963 33.1438 10.4212 31.0801C7.03918 27.6981 5.12461 23.0436 4.96411 17.8158C4.8724 15.1331 5.15901 12.909 5.9042 10.4556C6.23667 9.37793 6.12202 9.43525 7.69265 9.64161ZM43.8974 10.6276C46.0871 17.7699 44.3331 25.9555 39.5753 30.8623C37.3971 33.1208 34.7602 34.6571 31.1145 35.8035C30.1515 36.113 27.5606 36.6863 27.1593 36.6863C26.9873 36.6863 27.2052 36.4226 27.9847 35.6774C31.9629 31.9056 34.5539 27.4001 35.322 22.9175C35.7691 20.338 35.5054 16.44 34.68 13.551C34.531 12.9892 34.3704 12.4504 34.3246 12.3358C34.2673 12.1867 34.4736 12.0491 35.3335 11.6479C37.3283 10.7078 39.5295 10.0543 41.8338 9.68747C43.6452 9.41232 43.5076 9.34353 43.8974 10.6276ZM5.96152 27.1478C6.5806 28.3631 7.78437 30.1745 8.63274 31.1719C11.2925 34.2902 16.0388 36.8582 20.7507 37.7295C21.943 37.9474 21.9315 38.0047 20.6933 38.4059C18.5954 39.0709 17.8043 39.2199 16.0159 39.2887C14.0669 39.369 13.058 39.2428 11.5218 38.7269C7.13089 37.271 3.47373 33.5794 1.84578 28.9707C1.65088 28.4089 1.49038 27.9045 1.49038 27.8472C1.49038 27.6293 4.74629 26.1619 5.27365 26.1504C5.37683 26.139 5.65198 26.5402 5.96152 27.1478ZM45.4107 26.4256C46.4884 26.7924 48.1507 27.6179 48.231 27.8242C48.3227 28.0421 47.7724 29.5554 47.1533 30.7821C45.3534 34.3819 42.3956 37.1334 38.8072 38.532C35.9984 39.6326 32.7884 39.5982 29.2458 38.4403C27.7784 37.9588 27.7669 37.9818 29.5783 37.6034C32.3871 37.0187 35.3105 35.815 37.6493 34.2673C39.048 33.3501 40.9625 31.5731 41.8911 30.3235C42.579 29.4178 44.0694 26.8727 44.184 26.4256C44.2757 26.0702 44.356 26.0702 45.4107 26.4256Z" fill="#41B0C1"/>
</svg>
