<?xml version="1.0" standalone="no"?>
<!DOCTYPE svg PUBLIC "-//W3C//DTD SVG 20010904//EN"
 "http://www.w3.org/TR/2001/REC-SVG-20010904/DTD/svg10.dtd">
<svg version="1.0" xmlns="http://www.w3.org/2000/svg"
 width="500.000000pt" height="500.000000pt" viewBox="0 0 500.000000 500.000000"
 preserveAspectRatio="xMidYMid meet">
<metadata>
Created by potrace 1.16, written by Peter Selinger 2001-2019
</metadata>
<g transform="translate(0.000000,500.000000) scale(0.100000,-0.100000)"
fill="#000000" stroke="none">
<path d="M2460 4377 c-262 -194 -517 -511 -653 -809 l-36 -77 -93 44 c-240
112 -539 185 -756 185 l-73 0 -25 -55 c-69 -157 -122 -417 -131 -645 -9 -220
22 -451 87 -652 l28 -89 -26 -11 c-15 -5 -51 -19 -81 -29 -105 -37 -321 -156
-321 -177 0 -4 11 -48 24 -98 139 -517 576 -937 1093 -1050 118 -26 367 -24
498 4 131 28 264 73 400 134 146 66 176 66 307 4 118 -57 302 -118 428 -142
129 -25 363 -25 480 0 417 89 800 397 995 802 50 103 102 252 111 316 l6 43
-80 48 c-82 50 -225 115 -300 138 -50 14 -49 5 -9 141 62 208 81 369 74 612
-7 242 -42 431 -118 626 -35 92 -36 92 -184 79 -139 -12 -163 -16 -305 -51
-143 -34 -280 -83 -394 -140 -43 -22 -79 -38 -80 -36 -149 319 -295 530 -506
732 -92 88 -251 216 -268 216 -4 0 -45 -29 -92 -63z m177 -141 c106 -86 246
-232 330 -347 201 -270 316 -534 375 -859 31 -171 32 -486 1 -622 -75 -332
-248 -636 -526 -925 -111 -114 -247 -233 -268 -233 -8 0 -61 42 -119 94 -233
207 -414 441 -535 690 -164 338 -201 654 -124 1055 69 357 264 721 534 996 84
86 232 215 247 215 3 0 41 -29 85 -64z m-1586 -637 c177 -23 411 -93 586 -174
l93 -43 -16 -49 c-29 -95 -63 -250 -80 -363 -22 -157 -15 -442 16 -585 79
-370 284 -722 603 -1032 79 -77 109 -113 96 -113 -47 0 -276 55 -399 96 -278
92 -480 213 -661 393 -295 295 -462 701 -476 1157 -8 234 17 428 82 642 29 94
19 89 156 71z m3158 -86 c191 -623 38 -1337 -377 -1765 -190 -197 -420 -331
-738 -431 -84 -27 -310 -77 -345 -77 -15 0 4 23 72 88 347 329 573 722 640
1113 39 225 16 565 -56 817 -13 49 -27 96 -31 106 -5 13 13 25 88 60 174 82
366 139 567 171 158 24 146 30 180 -82z m-3309 -1441 c54 -106 159 -264 233
-351 232 -272 646 -496 1057 -572 104 -19 103 -24 -5 -59 -183 -58 -252 -71
-408 -77 -170 -7 -258 4 -392 49 -383 127 -702 449 -844 851 -17 49 -31 93
-31 98 0 19 284 147 330 148 9 1 33 -34 60 -87z m3441 63 c94 -32 239 -104
246 -122 8 -19 -40 -151 -94 -258 -157 -314 -415 -554 -728 -676 -245 -96
-525 -93 -834 8 -128 42 -129 40 29 73 245 51 500 156 704 291 122 80 289 235
370 344 60 79 190 301 200 340 8 31 15 31 107 0z"/>
</g>
</svg>
