<svg width="56" height="55" viewBox="0 0 56 55" fill="none" xmlns="http://www.w3.org/2000/svg">
<path fill-rule="evenodd" clip-rule="evenodd" d="M12.5833 30.5417C15.0226 30.5417 17.4071 31.2552 19.4354 32.5921C21.4636 33.929 23.0444 35.8292 23.9778 38.0523C24.9113 40.2755 25.1556 42.7218 24.6797 45.0819C24.2038 47.442 23.0292 49.6099 21.3043 51.3115C19.5795 53.013 17.3819 54.1718 14.9894 54.6412C12.597 55.1107 10.1172 54.8697 7.86356 53.9489C5.60993 53.028 3.68373 51.4686 2.32853 49.4678C0.973322 47.467 0.249984 45.1147 0.249984 42.7083C0.249984 38.2279 4.36007 24.0325 12.5833 0.124989L18.75 0.12499L12.5833 30.5417ZM43.4167 30.5417C45.856 30.5417 48.2405 31.2552 50.2687 32.5921C52.2969 33.929 53.8777 35.8292 54.8112 38.0523C55.7447 40.2755 55.9889 42.7218 55.513 45.0819C55.0371 47.442 53.8625 49.6099 52.1376 51.3115C50.4128 53.013 48.2152 54.1718 45.8228 54.6412C43.4303 55.1107 40.9505 54.8697 38.6969 53.9489C36.4433 53.028 34.5171 51.4686 33.1619 49.4678C31.8067 47.467 31.0833 45.1147 31.0833 42.7083C31.0833 38.2279 35.1934 24.0325 43.4167 0.124992L49.5833 0.124992L43.4167 30.5417Z" fill="#41B0C1"/>
</svg>
